# xmcd
#
# Track frame offsets: 
#        150
#        19080
#        37010
#        59650
#        78142
#        96417
#        112125
#        129912
#        149917
#        161690
#        179592
#        207919
#
# Disc length: 3471 seconds
#
# Revision: 4
# Processed by: cddbd v1.5.2PL0 Copyright (c) Steve Scherf et al.
# Submitted via: ExactAudioCopy v0.99pb5
#
DISCID=b40d8d0c
DTITLE=Eric Heatherly - Swimming In Champagne
DYEAR=2000
DGENRE=Country
TTITLE0=Someone Else's Cadillac
TTITLE1=I Just Break 'Em
TTITLE2=Didn't Mean A Thing
TTITLE3=One Night
TTITLE4=WhyDon'tCha
TTITLE5=Flowers On The Wall
TTITLE6=Let Me
TTITLE7=Swimming In Champagne
TTITLE8=Wrong Five O'clock
TTITLE9=Freedom Chain
TTITLE10=She's So Hot
TTITLE11=DataTrack 12
EXTD=
EXTT0=
EXTT1=
EXTT2=
EXTT3=
EXTT4=
EXTT5=
EXTT6=
EXTT7=
EXTT8=
EXTT9=
EXTT10=
EXTT11=
PLAYORDER=
